<?xml version="1.0" encoding="utf-8"?>
<!-- Generator: Adobe Illustrator 18.1.1, SVG Export Plug-In . SVG Version: 6.00 Build 0)  -->
<svg version="1.1" id="Layer_1" xmlns="http://www.w3.org/2000/svg" xmlns:xlink="http://www.w3.org/1999/xlink" x="0px" y="0px"
	 viewBox="0 0 130 64" enable-background="new 0 0 130 64" xml:space="preserve">
<g>
	<path fill="#FFFFFF" stroke="#FFFFFF" stroke-width="10" d="M122.6,27.6c-1.6-1.7-4-2.6-6.4-2.6c-1.7,0-3.4,0.4-5,1.3
		c-0.3-0.2-0.6-0.4-0.9-0.5c-0.7-0.3-2.5-0.8-4.9-0.8c-2.5,0-4.8,0.7-6.6,1.9c-0.6-0.5-1.2-0.9-1.8-1.1c-1-0.4-2.1-0.7-3.2-0.7
		c0.1-0.5,0.1-1,0.1-1.4c0-2.2-1-4.6-2.9-6.1c-1.8-1.5-4.1-2.1-6.6-2.1c-1.2,0-2.4,0.2-3.5,0.5c-1.1-0.5-2.2-0.7-3.2-0.7
		c-1.6,0-3.1,0.4-4.3,1c-0.1,0-0.2-0.1-0.3-0.1c-1.2-0.5-2.4-0.7-3.5-0.7c-1.6,0-3,0.2-4.1,0.5c-0.5-0.2-0.9-0.3-1.4-0.2l-4.9,0
		c-0.8,0-1.5,0.2-2.1,0.6c-0.1-0.1-0.2-0.1-0.3-0.1c-1.2-0.5-2.4-0.7-3.5-0.7c-1.7,0-3.1,0.3-4.2,0.5c-0.2,0.1-0.5,0.1-0.7,0.2
		c-1.1-0.5-2.2-0.7-3.3-0.7c-1.3,0-2.6,0.3-3.7,0.8c-1.2-0.6-2.4-0.7-3.6-0.7c-1.7,0-3.3,0.3-4.8,1.1l-0.9-3.1l0,0
		c-0.6-1.8-2.2-3-4.2-3c-0.2,0-0.6,0-1.1,0.2L8.2,16.5c-1.9,0.6-3.1,2.3-3,4.2c0,0.2,0.1,0.7,0.2,1.2L8,30.6c0.1,0.3,0.3,0.7,0.4,1
		l0,0.1c0.2,0.3,0.4,0.6,0.7,0.8l7.3,7c0.8,0.8,1.9,1.2,3,1.2c0,0,0,0,0,0c0.4,0,0.7-0.1,0.9-0.1l7.3-2.2c-0.1,0.6-0.2,1.2-0.2,1.9
		c0,0.8,0.1,1.7,0.5,2.6c0.6,1.4,1.8,2.5,3,3.1c1.2,0.5,2.4,0.7,3.5,0.7h0c1.7,0,3.1-0.3,4.2-0.5c1.5-0.4,2.7-1.5,3.1-3.1l0.4-1.6
		c0.2-1,0.1-2.2-0.5-3.1l0.1-0.4c0.1,0,0.2,0,0.2,0c1.7,0,3.5-0.5,5.2-1.5c1.4,1,3,1.4,4.4,1.4h0c1.6,0,3.1-0.4,4.3-1
		c0.1,0,0.2,0.1,0.2,0.1c1.2,0.6,2.4,0.7,3.5,0.7c1.6,0,3-0.2,4.1-0.5c0.5,0.2,0.9,0.3,1.4,0.2l4.9,0c1.8,0,3.4-1.2,3.9-2.8
		c0.6,0.7,1.4,1.4,2.3,1.9c1.8,1,4,1.4,6.3,1.4c0.2,0,0.3,0,0.5,0l-0.6,2.6c-0.4,1.6,0.4,3.3,1.9,4c1.6,0.8,3.6,1.3,6.3,1.3
		c2.2,0,4.3-0.4,6.1-1.7c1.6,1.2,3.5,1.7,5.4,1.7h0c2.2,0,4.4-0.6,6.1-1.9c1.6,1.3,3.7,1.9,5.8,1.9c0,0,0.1,0,0.1,0
		c2.8,0,5.9-1.2,7.9-3.7c1.8-2.1,2.8-4.9,2.8-7.9C125,31.6,124.2,29.3,122.6,27.6z"/>
	<path fill="#C91617" d="M122.6,27.6c-1.6-1.7-4-2.6-6.4-2.6c-1.7,0-3.4,0.4-5,1.3c-0.3-0.2-0.6-0.4-0.9-0.5
		c-0.7-0.3-2.5-0.8-4.9-0.8c-2.5,0-4.8,0.7-6.6,1.9c-0.6-0.5-1.2-0.9-1.8-1.1c-1-0.4-2.1-0.7-3.2-0.7c0.1-0.5,0.1-1,0.1-1.4
		c0-2.2-1-4.6-2.9-6.1c-1.8-1.5-4.1-2.1-6.6-2.1c-1.2,0-2.4,0.2-3.5,0.5c-1.1-0.5-2.2-0.7-3.2-0.7c-1.6,0-3.1,0.4-4.3,1
		c-0.1,0-0.2-0.1-0.3-0.1c-1.2-0.5-2.4-0.7-3.5-0.7c-1.6,0-3,0.2-4.1,0.5c-0.5-0.2-0.9-0.3-1.4-0.2l-4.9,0c-0.8,0-1.5,0.2-2.1,0.6
		c-0.1-0.1-0.2-0.1-0.3-0.1c-1.2-0.5-2.4-0.7-3.5-0.7c-1.7,0-3.1,0.3-4.2,0.5c-0.2,0.1-0.5,0.1-0.7,0.2c-1.1-0.5-2.2-0.7-3.3-0.7
		c-1.3,0-2.6,0.3-3.7,0.8c-1.2-0.6-2.4-0.7-3.6-0.7c-1.7,0-3.3,0.3-4.8,1.1l-0.9-3.1l0,0c-0.6-1.8-2.2-3-4.2-3c-0.2,0-0.6,0-1.1,0.2
		L8.2,16.5c-1.9,0.6-3.1,2.3-3,4.2c0,0.2,0.1,0.7,0.2,1.2L8,30.6c0.1,0.3,0.3,0.7,0.4,1l0,0.1c0.2,0.3,0.4,0.6,0.7,0.8l7.3,7
		c0.8,0.8,1.9,1.2,3,1.2c0,0,0,0,0,0c0.4,0,0.7-0.1,0.9-0.1l7.3-2.2c-0.1,0.6-0.2,1.2-0.2,1.9c0,0.8,0.1,1.7,0.5,2.6
		c0.6,1.4,1.8,2.5,3,3.1c1.2,0.5,2.4,0.7,3.5,0.7h0c1.7,0,3.1-0.3,4.2-0.5c1.5-0.4,2.7-1.5,3.1-3.1l0.4-1.6c0.2-1,0.1-2.2-0.5-3.1
		l0.1-0.4c0.1,0,0.2,0,0.2,0c1.7,0,3.5-0.5,5.2-1.5c1.4,1,3,1.4,4.4,1.4h0c1.6,0,3.1-0.4,4.3-1c0.1,0,0.2,0.1,0.2,0.1
		c1.2,0.6,2.4,0.7,3.5,0.7c1.6,0,3-0.2,4.1-0.5c0.5,0.2,0.9,0.3,1.4,0.2l4.9,0c1.8,0,3.4-1.2,3.9-2.8c0.6,0.7,1.4,1.4,2.3,1.9
		c1.8,1,4,1.4,6.3,1.4c0.2,0,0.3,0,0.5,0l-0.6,2.6c-0.4,1.6,0.4,3.3,1.9,4c1.6,0.8,3.6,1.3,6.3,1.3c2.2,0,4.3-0.4,6.1-1.7
		c1.6,1.2,3.5,1.7,5.4,1.7h0c2.2,0,4.4-0.6,6.1-1.9c1.6,1.3,3.7,1.9,5.8,1.9c0,0,0.1,0,0.1,0c2.8,0,5.9-1.2,7.9-3.7
		c1.8-2.1,2.8-4.9,2.8-7.9C125,31.6,124.2,29.3,122.6,27.6z"/>
	<g>
		<g>
			<g>
				<g>
					<path fill="#FFFFFF" d="M64.6,29.8c-0.2,0.1-0.3,0.1-0.4,0.1c-0.5,0.2-1.1,0.1-1.2,0c-0.2-0.1-0.5-0.4-0.4-0.6l2-8.7
						c0.1-0.3-0.1-0.7-0.5-0.7h-4.9L58.1,25L57.1,29c-0.4,0.1-0.8,0.2-1.1,0.2c-1,0-1.3-0.4-1.1-1.2l1.1-4.9
						c0.6-2.4-0.4-3.4-2.8-3.4c-1.3,0-2.4,0.2-3.3,0.4l-0.4,1.6c0.3,0,0.5,0,0.6,0.1c0.2,0.1,0.5,0.4,0.4,0.6L49,29.9
						c-0.5,2.3,0.6,3.6,2.7,3.6c2,0,3.7-1.2,5.1-2.5l0,0c0,1.5,1,2.3,2.9,2.3c1.4,0,2.6-0.2,3.5-0.5c0.3-0.1,0.5-0.1,0.8-0.2
						L64.6,29.8z"/>
				</g>
			</g>
			<g>
				<g>
					<g>
						<path fill="#FFFFFF" d="M76,28.2c0-5.2,3.6-8.6,8.4-8.6c3.5,0,5.3,1.7,5.3,4c0,3.7-3.4,4.6-8.5,4.7c0.1,1.3,0.6,1.9,1.6,1.9
							c1.2,0,2.1-0.6,2.6-1.2h2.8l-0.8,3.4c-1.1,0.5-2.9,1-4.9,1C77.7,33.5,76,31.2,76,28.2z M81.5,25.7c2.2-0.2,3.3-0.7,3.3-1.9
							c0-0.6-0.3-1.1-1-1.1C82.7,22.8,81.9,24.1,81.5,25.7z"/>
					</g>
				</g>
			</g>
			<g>
				<g>
					<g>
						<path fill="#FFFFFF" d="M45.1,19.7c-1.7,0-3.2,0.9-4.2,2c-0.2-1.2-1.2-1.9-3-1.9c-1.2,0-2.3,0.3-3.1,0.7l-0.6,2.7h0.7
							c0.3,0,0.5,0.4,0.4,0.6l-3.5,15.1c-0.6,2.4,0.4,3.4,2.8,3.4c1.3,0,2.4-0.2,3.3-0.4l0.4-1.6c-0.3,0-0.5,0-0.6-0.1
							c-0.2-0.1-0.5-0.4-0.4-0.6l1.7-7.2c0.7,0.8,1.7,1.3,3.2,1.3c1.4,0,3-0.6,4.4-2c1.8-1.8,2.7-4.6,2.7-7.2
							C49.1,21.3,47.5,19.7,45.1,19.7z M40.5,29.9c-0.4,0-0.8-0.1-1-0.2l1.4-6.3c0.3-0.1,0.6-0.2,0.8-0.2c1.1,0,1.8,0.5,1.8,1.7
							C43.5,27.7,42.4,29.9,40.5,29.9z"/>
					</g>
				</g>
			</g>
			<g>
				<g>
					<path fill="#FFFFFF" d="M78,21.5c0.6-0.6,1.2-1,1.9-1.4c-0.5-0.5-1.2-0.7-2.1-0.7c-2,0-3.7,1.2-5.1,2.5l0,0
						c0-1.5-1-2.3-2.9-2.3c-1.4,0-2.6,0.2-3.5,0.5c-0.3,0.1-0.5,0.1-0.8,0.2l-0.7,2.8c0.2-0.1,0.3-0.1,0.4-0.1
						c0.5-0.2,1.1-0.1,1.2,0c0.2,0.1,0.5,0.4,0.4,0.6l-2,8.7c-0.1,0.3,0.1,0.7,0.5,0.7h4.9l1.2-5.2l0.8-3.2c0.4-0.1,0.5-0.2,1.1-0.2
						c1.5-0.1,2.3-0.1,2.9,0C76.5,23.3,77.2,22.3,78,21.5z"/>
				</g>
			</g>
		</g>
		<g>
			<g>
				<path fill="#FFFFFF" d="M86,41l0.7-2.8h2.1c0.2,0.5,0.7,1,1.7,1c1,0,1.7-0.5,1.7-1.6c0-0.7-0.5-1.1-1.4-1.1h-1.1l0.6-2.5h1.1
					c1.3,0,1.8-0.7,1.8-1.5c0-0.6-0.4-1-1.2-1c-0.8,0-1.3,0.3-1.7,0.9h-2l0.7-3.1c1.1-0.4,2.4-0.6,3.8-0.6c3,0,4.6,1.2,4.6,3.1
					c0,1.9-1.1,3.1-3.2,3.5v0.1c1.4,0.3,2.2,1.1,2.2,2.4c0,2.6-2.2,4.2-5.7,4.2C88.5,41.9,86.9,41.4,86,41z"/>
			</g>
			<g>
				<g>
					<g>
						<path fill="#FFFFFF" d="M97.3,37.3c0-2.5,0.9-4.7,2.2-6.2c1.3-1.5,3.3-2.4,5.9-2.4c2,0,3.2,0.4,3.8,0.6l-0.7,3h-2
							c-0.3-0.3-0.6-0.6-1.5-0.6c-1,0-1.7,0.5-2.3,1.4c-0.3,0.5-0.5,1-0.7,1.6c0.8-0.7,1.8-1.1,3-1.1c2.1,0,3.3,1.1,3.3,3
							c0,3.2-2.5,5.4-6,5.4C99.1,41.9,97.3,40.1,97.3,37.3z M101.6,36.2c-0.1,0.6-0.1,1.2-0.1,1.7c0,1,0.3,1.4,1,1.4
							c1,0,1.6-1.2,1.6-2.4c0-0.6-0.3-1-1.2-1C102.4,35.9,101.9,36,101.6,36.2z"/>
					</g>
				</g>
			</g>
			<g>
				<g>
					<g>
						<path fill="#FFFFFF" d="M109,36.7c0-2,0.8-4.1,1.9-5.5c1.4-1.7,3.3-2.5,5.3-2.5c3.2,0,5.2,2.1,5.2,5.2c0,2.1-0.8,4.2-1.9,5.6
							c-1.4,1.7-3.3,2.4-5.3,2.4C110.9,41.9,109,39.9,109,36.7z M116.3,37.6c0.5-1.1,0.9-3,0.9-4.3c0-1.2-0.4-1.8-1.2-1.8
							c-0.8,0-1.4,0.5-1.8,1.6c-0.5,1.1-0.9,3-0.9,4.2c0,1.2,0.4,1.8,1.2,1.8C115.2,39.2,115.8,38.7,116.3,37.6z"/>
					</g>
				</g>
			</g>
		</g>
		<g>
			<path fill="#FFFFFF" d="M30.9,23.6l-2.7-8.7c0-0.1-0.1-0.1-0.2-0.1l-8,2.5c-0.1,0-0.1,0.1-0.1,0.2l2.7,8.8c0,0,0,0.1,0.1,0.1
				c0,0,0.1,0,0.1,0l3.3-1l-1.9,8.9l0,0.1l0.2,0.6c0,0,0,0.1,0.1,0.1c0,0,0,0,0.1,0c0,0,0,0,0,0l4.1-1.2c0,0,0.1,0,0.1-0.1
				L30.9,23.6L30.9,23.6z"/>
			<path fill="#FFFFFF" d="M23.3,34.4L16.7,28l3.3-1c0,0,0.1,0,0.1-0.1c0,0,0-0.1,0-0.1l-2.7-8.7c0-0.1-0.1-0.1-0.2-0.1l-8,2.5
				c-0.1,0-0.1,0.1-0.1,0.2l2.7,8.7l0,0.1l7.3,7c0,0,0.1,0,0.1,0c0,0,0,0,0,0l4.1-1.2c0,0,0.1,0,0.1-0.1c0,0,0-0.1,0-0.1L23.3,34.4
				L23.3,34.4z"/>
		</g>
	</g>
</g>
<g>
	<path fill="#2F9799" d="M5.3,55.4h0.4c0.1,0,0.3-0.2,0.3-0.3l0.9-3.8c0-0.1,0-0.3-0.2-0.3H6.3l0.3-1.2H10l-0.3,1.2H9.4
		c-0.1,0-0.3,0.2-0.3,0.3l-0.9,3.8c0,0.1,0,0.3,0.2,0.3h0.4l-0.3,1.2H5L5.3,55.4z"/>
	<path fill="#2F9799" d="M15.1,55.4l0.4-1.9c0.1-0.3,0-0.5-0.4-0.5c-0.1,0-0.2,0-0.4,0.1L14,56.6h-1.9c-0.1,0-0.2-0.1-0.2-0.3
		l0.7-2.8c0.1-0.3,0-0.5-0.4-0.5c-0.1,0-0.3,0-0.4,0.1l-0.8,3.5H9.2c-0.1,0-0.2-0.1-0.2-0.3L9.8,53c0-0.1,0-0.2-0.1-0.2H9.3l0.2-1.1
		c0.4-0.1,0.8-0.3,1.5-0.3c0.6,0,1,0.3,1,0.9c0.5-0.5,1.1-0.9,1.8-0.9c0.6,0,1,0.3,1.1,1c0.5-0.5,1.1-1,1.9-1c0.8,0,1.2,0.5,1,1.4
		l-0.6,2.4c0,0.1,0.1,0.2,0.2,0.2h0.3l-0.2,1c-0.3,0.2-0.7,0.3-1.3,0.3C15.3,56.7,14.9,56.3,15.1,55.4z"/>
	<path fill="#2F9799" d="M17.2,57h0.3c0.1,0,0.3-0.1,0.3-0.2l0.9-3.8c0-0.1,0-0.2-0.1-0.2h-0.3l0.2-1.1c0.4-0.1,0.8-0.3,1.5-0.3
		c0.6,0,0.9,0.3,1,0.8c0.4-0.5,1-0.9,1.6-0.9c0.8,0,1.4,0.6,1.4,1.7c0,1.1-0.3,2.1-0.9,2.7c-0.5,0.5-1.1,0.7-1.7,0.7
		c-0.6,0-1-0.1-1.2-0.4l-0.2,1h0.4L20,58.2h-3L17.2,57z M20.8,53l-0.5,2.2c0.1,0,0.3,0.1,0.4,0.1c0.7,0,1.1-0.8,1.1-1.7
		c0-0.5-0.2-0.7-0.7-0.7C21,52.9,20.9,52.9,20.8,53z"/>
	<path fill="#2F9799" d="M23.8,56.3l0.8-3.3c0-0.1,0-0.2-0.1-0.2h-0.3l0.2-1.1c0.4-0.1,0.8-0.3,1.5-0.3c0.6,0,0.9,0.3,0.9,0.9
		c0.3-0.5,0.8-0.9,1.4-0.9c0.1,0,0.2,0,0.3,0l-0.4,1.7h-0.3c-0.6,0-1,0.2-1.3,0.4l-0.7,3H24C23.9,56.6,23.8,56.4,23.8,56.3z"/>
	<path fill="#2F9799" d="M28.1,54.4c0-1.6,1.2-3,3-3c1.6,0,2.6,0.9,2.6,2.2c0,1.6-1.2,3-3,3C29,56.7,28.1,55.8,28.1,54.4z
		 M31.6,53.5c0-0.5-0.2-0.7-0.5-0.7c-0.6,0-0.9,1.1-0.9,2c0,0.5,0.2,0.7,0.5,0.7C31.2,55.4,31.6,54.3,31.6,53.5z"/>
	<path fill="#2F9799" d="M34.1,53c0-0.1-0.1-0.2-0.2-0.2h-0.3l0.2-1.1c0.3-0.1,0.7-0.3,1.2-0.3c0.6,0,1,0.3,1,1l0.2,2.2h0
		c0.5-0.9,0.9-2,1.1-3.1h1.8l-0.3,1.1c-0.6,1.3-1.2,2.6-2.5,4h-1.8L34.1,53z"/>
	<path fill="#2F9799" d="M39,55.4l0.5-2.4c0-0.1,0-0.2-0.1-0.2h-0.3l0.2-1.1c0.4-0.1,0.8-0.3,1.5-0.3c0.7,0,1.1,0.4,0.9,1.2
		l-0.6,2.5c0,0.1,0.1,0.2,0.2,0.2h0.3l-0.2,1c-0.3,0.2-0.8,0.3-1.3,0.3C39.2,56.7,38.8,56.3,39,55.4z M40.1,50.4
		c0-0.6,0.5-0.9,1.1-0.9c0.6,0,0.9,0.3,0.9,0.8c0,0.6-0.5,1-1,1C40.4,51.3,40.1,50.9,40.1,50.4z"/>
	<path fill="#2F9799" d="M45.1,55.4l0.4-1.9c0.1-0.3,0-0.5-0.4-0.5c-0.1,0-0.3,0-0.4,0.1l-0.8,3.5H42c-0.1,0-0.2-0.1-0.2-0.3
		l0.8-3.3c0-0.1,0-0.2-0.1-0.2h-0.3l0.2-1.1c0.4-0.1,0.8-0.3,1.5-0.3c0.6,0,1,0.3,1,0.9c0.5-0.5,1.2-0.9,1.9-0.9
		c0.8,0,1.2,0.5,1,1.4l-0.5,2.4c0,0.1,0.1,0.2,0.2,0.2h0.3l-0.2,1c-0.3,0.2-0.7,0.3-1.3,0.3C45.2,56.7,44.9,56.3,45.1,55.4z"/>
	<path fill="#2F9799" d="M47.2,57.2c0-0.6,0.6-0.9,1.2-1.1c-0.3-0.1-0.4-0.4-0.4-0.7c0-0.5,0.4-0.9,0.9-1.1
		c-0.4-0.2-0.6-0.6-0.6-1.1c0-1.1,0.9-1.9,2.5-1.9c0.3,0,0.6,0,0.8,0.1h1.9l-0.3,1.3H53c-0.1,0-0.2,0.1-0.2,0.1v0
		c0,1.1-0.9,1.8-2.4,1.8c-0.4,0-0.8,0-1.1-0.1c0,0.1,0,0.1,0,0.2c0,0.1,0.1,0.3,0.3,0.3h1.4c1.1,0,1.5,0.5,1.5,1.2
		c0,1.3-0.8,2.1-3,2.1C47.8,58.3,47.2,57.9,47.2,57.2z M49,56.6c0,0.1,0,0.1,0,0.2c0,0.3,0.1,0.4,0.8,0.4c0.6,0,1-0.1,1-0.4
		c0-0.1-0.1-0.2-0.4-0.2H49z M51,52.8c0-0.3-0.1-0.4-0.4-0.4c-0.3,0-0.6,0.4-0.6,1c0,0.3,0.1,0.4,0.3,0.4C50.7,53.9,51,53.4,51,52.8
		z"/>
	<path fill="#2F9799" d="M54.3,56.3l0.8-3.3c0-0.1,0-0.2-0.1-0.2h-0.3l0.2-1.1c0.4-0.1,0.8-0.3,1.5-0.3c0.6,0,0.9,0.3,0.9,0.9
		c0.3-0.5,0.8-0.9,1.4-0.9c0.1,0,0.2,0,0.3,0l-0.4,1.7h-0.3c-0.6,0-1,0.2-1.3,0.4l-0.7,3h-1.9C54.3,56.6,54.3,56.4,54.3,56.3z"/>
	<path fill="#2F9799" d="M58.5,54.7c0-2,1.4-3.3,3.2-3.3c1.3,0,2,0.7,2,1.5c0,1.4-1.3,1.8-3.2,1.8c0,0.5,0.2,0.7,0.6,0.7
		c0.5,0,0.8-0.2,1-0.4h1.1l-0.3,1.3c-0.4,0.2-1.1,0.4-1.9,0.4C59.1,56.7,58.5,55.8,58.5,54.7z M60.6,53.7c0.8-0.1,1.2-0.3,1.2-0.7
		c0-0.2-0.1-0.4-0.4-0.4C61,52.6,60.7,53.1,60.6,53.7z"/>
	<path fill="#2F9799" d="M63.3,56.2l0.3-1.3h1c0.1,0.3,0.3,0.5,0.8,0.5c0.3,0,0.6-0.1,0.6-0.4c0-0.2-0.2-0.3-0.7-0.4
		c-0.8-0.2-1.3-0.6-1.3-1.4c0-1.3,1-1.9,2.4-1.9c1,0,1.6,0.2,2,0.3L68,53h-1c-0.1-0.3-0.3-0.5-0.7-0.5c-0.4,0-0.5,0.1-0.5,0.3
		c0,0.2,0.2,0.3,0.6,0.4c0.9,0.2,1.5,0.5,1.5,1.3c0,1.3-0.9,2-2.4,2C64.2,56.7,63.6,56.4,63.3,56.2z"/>
	<path fill="#2F9799" d="M71.2,55.8c-0.5,0.5-1.1,0.9-1.8,0.9c-0.8,0-1.3-0.5-1.1-1.5l0.5-2.2c0-0.1,0-0.2-0.1-0.2h-0.3l0.2-1.1
		c0.4-0.1,0.8-0.3,1.4-0.3c0.8,0,1.1,0.5,0.9,1.2l-0.5,2c-0.1,0.3,0,0.5,0.4,0.5c0.1,0,0.3,0,0.4-0.1l0.8-3.6H74
		c0.1,0,0.2,0.1,0.2,0.3l-0.8,3.4c0,0.1,0.1,0.2,0.2,0.2h0.3l-0.2,1c-0.3,0.2-0.7,0.3-1.3,0.3C71.5,56.7,71.1,56.4,71.2,55.8z"/>
	<path fill="#2F9799" d="M74.2,55.4l0.9-4c0-0.1-0.1-0.2-0.1-0.2h-0.3l0.3-1.2h2.3c0.2,0,0.3,0.2,0.2,0.4l-1.1,4.9
		c0,0.1,0.1,0.2,0.2,0.2h0.3l-0.2,1c-0.3,0.2-0.8,0.3-1.3,0.3C74.4,56.7,74,56.3,74.2,55.4z"/>
	<path fill="#2F9799" d="M77.6,51.5h0.5l0.3-1.3h2.1l-0.3,1.3H81l-0.3,1.3h-0.8l-0.5,2c-0.1,0.4,0,0.6,0.5,0.6h0.2l-0.3,1.1
		c-0.3,0.1-0.6,0.1-1,0.1c-1.3,0-1.8-0.6-1.5-1.8l0.5-2.2h-0.5L77.6,51.5z"/>
	<path fill="#2F9799" d="M80.2,56.2l0.3-1.3h1c0.1,0.3,0.3,0.5,0.8,0.5c0.3,0,0.6-0.1,0.6-0.4c0-0.2-0.2-0.3-0.7-0.4
		c-0.8-0.2-1.3-0.6-1.3-1.4c0-1.3,1-1.9,2.4-1.9c1,0,1.6,0.2,2,0.3L84.9,53h-1c-0.1-0.3-0.3-0.5-0.7-0.5c-0.4,0-0.5,0.1-0.5,0.3
		c0,0.2,0.2,0.3,0.6,0.4c0.9,0.2,1.5,0.5,1.5,1.3c0,1.3-0.9,2-2.4,2C81.1,56.7,80.5,56.4,80.2,56.2z"/>
	<path fill="#2F9799" d="M86.9,51.5h0.5l0.3-1.3h2.1l-0.3,1.3h0.7L90,52.8h-0.8l-0.5,2c-0.1,0.4,0,0.6,0.5,0.6h0.2l-0.3,1.1
		c-0.3,0.1-0.6,0.1-1,0.1c-1.3,0-1.8-0.6-1.5-1.8l0.5-2.2h-0.5L86.9,51.5z"/>
	<path fill="#2F9799" d="M89.9,54.4c0-1.6,1.2-3,3-3c1.6,0,2.6,0.9,2.6,2.2c0,1.6-1.2,3-3,3C90.8,56.7,89.9,55.8,89.9,54.4z
		 M93.4,53.5c0-0.5-0.2-0.7-0.5-0.7c-0.6,0-0.9,1.1-0.9,2c0,0.5,0.2,0.7,0.5,0.7C93,55.4,93.4,54.3,93.4,53.5z"/>
	<path fill="#2F9799" d="M94.7,57.2c0-0.6,0.6-0.9,1.2-1.1c-0.3-0.1-0.4-0.4-0.4-0.7c0-0.5,0.4-0.9,0.9-1.1
		c-0.4-0.2-0.6-0.6-0.6-1.1c0-1.1,0.9-1.9,2.5-1.9c0.3,0,0.6,0,0.8,0.1h1.9l-0.3,1.3h-0.1c-0.1,0-0.2,0.1-0.2,0.1v0
		c0,1.1-0.9,1.8-2.4,1.8c-0.4,0-0.8,0-1.1-0.1c0,0.1,0,0.1,0,0.2c0,0.1,0.1,0.3,0.3,0.3h1.4c1.1,0,1.5,0.5,1.5,1.2
		c0,1.3-0.8,2.1-3,2.1C95.3,58.3,94.7,57.9,94.7,57.2z M96.5,56.6c0,0.1,0,0.1,0,0.2c0,0.3,0.1,0.4,0.8,0.4c0.6,0,1-0.1,1-0.4
		c0-0.1-0.1-0.2-0.4-0.2H96.5z M98.5,52.8c0-0.3-0.1-0.4-0.4-0.4c-0.3,0-0.6,0.4-0.6,1c0,0.3,0.1,0.4,0.3,0.4
		C98.2,53.9,98.5,53.4,98.5,52.8z"/>
	<path fill="#2F9799" d="M100.4,54.7c0-2,1.4-3.3,3.2-3.3c1.3,0,2,0.7,2,1.5c0,1.4-1.3,1.8-3.2,1.8c0,0.5,0.2,0.7,0.6,0.7
		c0.5,0,0.8-0.2,1-0.4h1.1l-0.3,1.3c-0.4,0.2-1.1,0.4-1.9,0.4C101.1,56.7,100.4,55.8,100.4,54.7z M102.5,53.7
		c0.8-0.1,1.2-0.3,1.2-0.7c0-0.2-0.1-0.4-0.4-0.4C102.9,52.6,102.7,53.1,102.5,53.7z"/>
	<path fill="#2F9799" d="M106.2,51.5h0.5l0.3-1.3h2.1l-0.3,1.3h0.7l-0.3,1.3h-0.8l-0.5,2c-0.1,0.4,0,0.6,0.5,0.6h0.2l-0.3,1.1
		c-0.3,0.1-0.6,0.1-1,0.1c-1.3,0-1.8-0.6-1.5-1.8l0.5-2.2h-0.5L106.2,51.5z"/>
	<path fill="#2F9799" d="M112.2,55.4l0.4-1.9c0.1-0.3,0-0.5-0.4-0.5c-0.1,0-0.3,0-0.4,0.1l-0.8,3.5h-1.9c-0.1,0-0.2-0.1-0.2-0.3
		l1.1-5c0-0.1-0.1-0.2-0.1-0.2h-0.3l0.3-1.2h2.3c0.2,0,0.3,0.2,0.2,0.4l-0.5,2.1c0.5-0.5,1.2-0.9,1.9-0.9c0.8,0,1.2,0.5,1,1.4
		l-0.5,2.4c0,0.1,0.1,0.2,0.2,0.2h0.3l-0.2,1c-0.3,0.2-0.7,0.3-1.3,0.3C112.4,56.7,112,56.3,112.2,55.4z"/>
	<path fill="#2F9799" d="M115.2,54.7c0-2,1.4-3.3,3.2-3.3c1.3,0,2,0.7,2,1.5c0,1.4-1.3,1.8-3.2,1.8c0,0.5,0.2,0.7,0.6,0.7
		c0.5,0,0.8-0.2,1-0.4h1.1l-0.3,1.3c-0.4,0.2-1.1,0.4-1.9,0.4C115.8,56.7,115.2,55.8,115.2,54.7z M117.3,53.7
		c0.8-0.1,1.2-0.3,1.2-0.7c0-0.2-0.1-0.4-0.4-0.4C117.7,52.6,117.4,53.1,117.3,53.7z"/>
	<path fill="#2F9799" d="M120.3,56.3l0.8-3.3c0-0.1,0-0.2-0.1-0.2h-0.3l0.2-1.1c0.4-0.1,0.8-0.3,1.5-0.3c0.6,0,0.9,0.3,0.9,0.9
		c0.3-0.5,0.8-0.9,1.4-0.9c0.1,0,0.2,0,0.3,0l-0.4,1.7h-0.3c-0.6,0-1,0.2-1.3,0.4l-0.7,3h-1.9C120.3,56.6,120.3,56.4,120.3,56.3z"/>
</g>
</svg>
